<?xml version="1.0" standalone="no"?>
<!DOCTYPE svg PUBLIC "-//W3C//DTD SVG 20010904//EN"
 "http://www.w3.org/TR/2001/REC-SVG-20010904/DTD/svg10.dtd">
<svg version="1.0" xmlns="http://www.w3.org/2000/svg"
 width="1150.000000pt" height="1150.000000pt" viewBox="0 0 1150.000000 1150.000000"
 preserveAspectRatio="xMidYMid meet">
<metadata>
Created by potrace 1.14, written by Peter Selinger 2001-2017
</metadata>
<g transform="translate(0.000000,1150.000000) scale(0.100000,-0.100000)"
fill="#000000" stroke="none">
<path d="M3465 10026 c-159 -37 -298 -111 -412 -220 -126 -119 -200 -239 -249
-403 -23 -76 -27 -108 -28 -228 -1 -164 15 -243 75 -373 50 -110 109 -191 202
-278 116 -111 260 -187 412 -218 l60 -13 3 -489 3 -489 1049 -1289 1050 -1289
-2 -765 -3 -765 -65 -14 c-181 -36 -356 -143 -487 -297 -69 -80 -156 -250
-179 -352 -26 -108 -26 -310 0 -418 23 -102 110 -272 179 -352 112 -131 248
-224 407 -276 82 -26 114 -31 230 -36 212 -7 360 33 523 142 363 241 495 707
313 1101 -113 244 -353 436 -611 489 l-60 13 -2 759 -3 759 1050 1289 1050
1290 0 487 0 486 62 13 c316 62 582 319 669 645 30 113 30 316 0 430 -47 178
-160 354 -301 468 -87 70 -241 146 -350 173 -90 22 -294 25 -385 5 -354 -77
-628 -367 -686 -725 -15 -94 -7 -266 16 -356 83 -318 353 -575 674 -641 l61
-13 0 -441 0 -440 -921 -1130 c-506 -621 -924 -1134 -929 -1139 -7 -7 -10 288
-10 821 l0 830 63 13 c273 53 531 272 635 540 40 101 55 190 56 315 1 150 -20
246 -80 375 -142 302 -415 486 -749 506 -356 22 -698 -185 -846 -511 -59 -131
-74 -205 -73 -370 1 -133 4 -160 28 -240 94 -309 344 -546 649 -612 l77 -16 0
-826 c-1 -651 -3 -823 -13 -810 -7 8 -425 522 -930 1142 l-917 1126 2 442 3
442 60 13 c259 53 493 239 610 485 60 127 78 214 78 374 0 112 -4 156 -22 220
-44 165 -126 300 -254 422 -93 88 -197 150 -325 193 -90 31 -108 33 -247 36
-102 3 -169 -1 -210 -10z m383 -259 c103 -36 176 -81 252 -158 118 -118 183
-276 183 -444 0 -337 -261 -612 -598 -632 -482 -29 -817 477 -604 913 82 167
248 297 434 340 92 21 243 12 333 -19z m4157 -4 c177 -44 332 -170 414 -339
42 -86 61 -171 61 -274 0 -179 -58 -319 -185 -445 -129 -129 -270 -189 -445
-189 -318 1 -574 221 -628 540 -15 87 -15 102 0 191 63 373 418 606 783 516z"/>
</g>
</svg>
